<svg xmlns="http://www.w3.org/2000/svg" xmlns:xlink="http://www.w3.org/1999/xlink" width="500" zoomAndPan="magnify" viewBox="0 0 375 374.999991" height="500" preserveAspectRatio="xMidYMid meet" version="1.0"><defs><clipPath id="0375129648"><path d="M 0 58.59375 L 375 58.59375 L 375 316.59375 L 0 316.59375 Z M 0 58.59375 " clip-rule="nonzero"/></clipPath></defs><path fill="#38b6ff" d="M 128.027344 254.296875 L 125.097656 255.761719 L 123.925781 253.125 C 119.824219 251.660156 116.015625 249.023438 113.085938 245.800781 C 106.933594 247.265625 100.488281 247.265625 94.335938 246.386719 C 91.40625 245.800781 88.769531 247.558594 87.890625 250.195312 L 85.253906 257.519531 L 76.464844 254.296875 L 79.101562 246.972656 C 79.980469 244.335938 79.101562 241.40625 76.464844 239.941406 C 70.3125 236.425781 65.332031 231.738281 61.230469 225.878906 C 59.472656 223.535156 56.542969 222.65625 53.90625 223.828125 L 46.875 227.050781 L 43.066406 218.554688 L 50.097656 215.332031 C 52.734375 214.160156 53.90625 211.230469 53.320312 208.59375 C 51.5625 201.855469 51.269531 194.824219 52.441406 187.792969 C 53.027344 184.863281 51.269531 182.226562 48.632812 181.347656 L 41.308594 178.710938 L 44.53125 169.921875 L 51.855469 172.558594 C 54.492188 173.4375 57.421875 172.558594 58.886719 169.921875 C 62.402344 163.769531 67.089844 158.789062 72.949219 154.6875 C 75.292969 152.929688 76.171875 150 75 147.363281 L 71.777344 140.332031 L 80.273438 136.523438 L 83.496094 143.554688 C 84.667969 146.191406 87.597656 147.363281 90.234375 146.777344 C 96.679688 145.019531 103.125 144.726562 109.570312 145.605469 C 111.914062 141.210938 115.722656 137.695312 119.824219 135.351562 L 120.117188 134.765625 L 120.410156 134.765625 C 124.511719 132.421875 129.199219 131.25 134.179688 131.25 L 139.160156 131.25 C 137.988281 129.492188 136.230469 128.027344 134.179688 127.441406 L 122.460938 123.046875 C 119.824219 122.167969 117.1875 122.167969 114.84375 123.339844 C 112.5 124.511719 110.449219 126.5625 109.570312 128.90625 L 108.105469 133.300781 C 102.832031 132.714844 97.558594 133.007812 92.285156 133.886719 L 90.234375 129.785156 C 89.0625 127.441406 87.011719 125.390625 84.667969 124.511719 C 82.03125 123.632812 79.394531 123.632812 77.050781 124.804688 L 65.625 130.078125 C 60.644531 132.421875 58.300781 138.28125 60.644531 143.554688 L 62.695312 147.65625 C 58.59375 151.171875 55.078125 154.980469 51.855469 159.375 L 47.460938 157.910156 C 42.1875 156.152344 36.621094 158.789062 34.570312 164.0625 L 30.175781 175.78125 C 29.296875 178.417969 29.296875 181.054688 30.46875 183.398438 C 31.640625 185.742188 33.691406 187.792969 36.035156 188.671875 L 40.429688 190.136719 C 39.84375 195.410156 40.136719 200.683594 41.015625 205.957031 L 36.914062 208.007812 C 34.570312 209.179688 32.519531 211.230469 31.640625 213.574219 C 30.761719 216.210938 30.761719 218.847656 31.933594 221.191406 L 37.207031 232.617188 C 39.550781 237.597656 45.410156 239.941406 50.683594 237.597656 L 54.785156 235.546875 C 58.300781 239.648438 62.109375 243.164062 66.503906 246.386719 L 65.039062 250.78125 C 63.28125 256.054688 65.917969 261.621094 71.191406 263.671875 L 82.910156 268.066406 C 84.082031 268.359375 85.253906 268.652344 86.425781 268.652344 C 87.890625 268.652344 89.355469 268.359375 90.527344 267.773438 C 92.871094 266.601562 94.921875 264.550781 95.800781 262.207031 L 97.265625 257.8125 C 102.539062 258.398438 107.8125 258.105469 113.085938 257.226562 L 115.136719 261.328125 C 116.308594 263.671875 118.359375 265.722656 120.703125 266.601562 C 123.339844 267.480469 125.976562 267.480469 128.320312 266.308594 L 139.746094 261.035156 C 142.675781 259.570312 144.433594 257.226562 145.3125 254.296875 L 133.886719 254.296875 C 131.835938 254.882812 129.785156 254.589844 128.027344 254.296875 Z M 128.027344 254.296875 " fill-opacity="1" fill-rule="nonzero"/><path fill="#38b6ff" d="M 92.578125 174.902344 C 95.800781 173.4375 99.023438 172.558594 102.539062 172.558594 C 103.417969 172.558594 104.589844 172.558594 105.46875 172.851562 L 105.46875 161.132812 C 99.316406 160.546875 93.164062 161.71875 87.597656 164.355469 C 79.101562 168.457031 72.65625 175.488281 69.433594 184.277344 C 66.210938 193.066406 66.503906 202.734375 70.605469 211.230469 C 74.707031 219.726562 81.738281 226.171875 90.527344 229.394531 C 94.335938 230.859375 98.4375 231.445312 102.539062 231.445312 C 103.710938 231.445312 104.882812 231.445312 105.761719 231.152344 C 105.46875 229.6875 105.175781 227.929688 105.175781 226.171875 L 105.175781 219.433594 C 101.660156 220.019531 97.851562 219.433594 94.335938 218.261719 C 88.476562 216.210938 83.789062 211.816406 81.152344 206.25 C 78.515625 200.683594 78.222656 194.238281 80.273438 188.378906 C 82.617188 182.519531 87.011719 177.539062 92.578125 174.902344 Z M 92.578125 174.902344 " fill-opacity="1" fill-rule="nonzero"/><path fill="#38b6ff" d="M 269.53125 160.253906 L 269.53125 169.921875 L 275.390625 169.921875 C 275.683594 169.921875 276.269531 169.921875 276.5625 169.921875 C 276.855469 169.921875 276.855469 169.921875 277.148438 169.628906 C 277.441406 169.628906 277.441406 169.628906 277.734375 169.335938 C 278.027344 169.335938 278.027344 169.042969 278.320312 169.042969 C 278.320312 169.042969 278.613281 169.042969 278.613281 168.75 C 278.90625 168.457031 279.199219 168.164062 279.492188 167.871094 L 295.3125 152.050781 C 295.605469 152.050781 295.605469 152.050781 295.898438 152.050781 L 314.648438 152.050781 C 316.992188 158.789062 323.4375 163.769531 331.054688 163.769531 C 340.722656 163.769531 348.632812 155.859375 348.632812 146.191406 C 348.632812 136.523438 340.722656 128.613281 331.054688 128.613281 C 323.4375 128.613281 316.992188 133.59375 314.648438 140.332031 L 292.96875 140.332031 C 291.503906 140.332031 290.039062 140.917969 288.867188 142.089844 L 273.046875 158.203125 L 269.53125 158.203125 C 269.53125 158.789062 269.53125 159.667969 269.53125 160.253906 Z M 331.054688 140.625 C 334.277344 140.625 336.914062 143.261719 336.914062 146.484375 C 336.914062 149.707031 334.277344 152.34375 331.054688 152.34375 C 327.832031 152.34375 325.195312 149.707031 325.195312 146.484375 C 325.195312 143.261719 327.832031 140.625 331.054688 140.625 Z M 331.054688 140.625 " fill-opacity="1" fill-rule="nonzero"/><g clip-path="url(#0375129648)"><path fill="#38b6ff" d="M 357.421875 58.59375 L 17.578125 58.59375 C 7.910156 58.59375 0 66.503906 0 76.171875 L 0 298.828125 C 0 308.496094 7.910156 316.40625 17.578125 316.40625 L 357.421875 316.40625 C 367.089844 316.40625 375 308.496094 375 298.828125 L 375 76.171875 C 375 66.503906 367.089844 58.59375 357.421875 58.59375 Z M 17.578125 70.3125 L 357.421875 70.3125 C 360.644531 70.3125 363.28125 72.949219 363.28125 76.171875 L 363.28125 99.609375 L 11.71875 99.609375 L 11.71875 76.171875 C 11.71875 72.949219 14.355469 70.3125 17.578125 70.3125 Z M 357.421875 304.6875 L 17.578125 304.6875 C 14.355469 304.6875 11.71875 302.050781 11.71875 298.828125 L 11.71875 111.328125 L 363.28125 111.328125 L 363.28125 298.828125 C 363.28125 302.050781 360.644531 304.6875 357.421875 304.6875 Z M 357.421875 304.6875 " fill-opacity="1" fill-rule="nonzero"/></g><path fill="#38b6ff" d="M 46.875 84.960938 C 46.875 85.34375 46.835938 85.726562 46.761719 86.105469 C 46.6875 86.480469 46.578125 86.847656 46.429688 87.203125 C 46.28125 87.558594 46.101562 87.894531 45.886719 88.214844 C 45.671875 88.535156 45.429688 88.832031 45.160156 89.105469 C 44.886719 89.375 44.589844 89.617188 44.269531 89.832031 C 43.949219 90.046875 43.613281 90.226562 43.257812 90.375 C 42.902344 90.523438 42.535156 90.632812 42.160156 90.707031 C 41.78125 90.78125 41.398438 90.820312 41.015625 90.820312 C 40.632812 90.820312 40.25 90.78125 39.871094 90.707031 C 39.496094 90.632812 39.128906 90.523438 38.773438 90.375 C 38.417969 90.226562 38.082031 90.046875 37.761719 89.832031 C 37.441406 89.617188 37.144531 89.375 36.871094 89.105469 C 36.601562 88.832031 36.359375 88.535156 36.144531 88.214844 C 35.929688 87.894531 35.75 87.558594 35.601562 87.203125 C 35.453125 86.847656 35.34375 86.480469 35.269531 86.105469 C 35.195312 85.726562 35.15625 85.34375 35.15625 84.960938 C 35.15625 84.578125 35.195312 84.195312 35.269531 83.816406 C 35.34375 83.441406 35.453125 83.074219 35.601562 82.71875 C 35.75 82.363281 35.929688 82.027344 36.144531 81.707031 C 36.359375 81.386719 36.601562 81.089844 36.871094 80.816406 C 37.144531 80.546875 37.441406 80.304688 37.761719 80.089844 C 38.082031 79.875 38.417969 79.695312 38.773438 79.546875 C 39.128906 79.398438 39.496094 79.289062 39.871094 79.214844 C 40.25 79.140625 40.632812 79.101562 41.015625 79.101562 C 41.398438 79.101562 41.78125 79.140625 42.160156 79.214844 C 42.535156 79.289062 42.902344 79.398438 43.257812 79.546875 C 43.613281 79.695312 43.949219 79.875 44.269531 80.089844 C 44.589844 80.304688 44.886719 80.546875 45.160156 80.816406 C 45.429688 81.089844 45.671875 81.386719 45.886719 81.707031 C 46.101562 82.027344 46.28125 82.363281 46.429688 82.71875 C 46.578125 83.074219 46.6875 83.441406 46.761719 83.816406 C 46.835938 84.195312 46.875 84.578125 46.875 84.960938 Z M 46.875 84.960938 " fill-opacity="1" fill-rule="nonzero"/><path fill="#38b6ff" d="M 82.03125 84.960938 C 82.03125 85.34375 81.992188 85.726562 81.917969 86.105469 C 81.84375 86.480469 81.734375 86.847656 81.585938 87.203125 C 81.4375 87.558594 81.257812 87.894531 81.042969 88.214844 C 80.828125 88.535156 80.585938 88.832031 80.316406 89.105469 C 80.042969 89.375 79.746094 89.617188 79.425781 89.832031 C 79.105469 90.046875 78.769531 90.226562 78.414062 90.375 C 78.058594 90.523438 77.691406 90.632812 77.316406 90.707031 C 76.9375 90.78125 76.554688 90.820312 76.171875 90.820312 C 75.789062 90.820312 75.40625 90.78125 75.027344 90.707031 C 74.652344 90.632812 74.285156 90.523438 73.929688 90.375 C 73.574219 90.226562 73.238281 90.046875 72.917969 89.832031 C 72.597656 89.617188 72.300781 89.375 72.027344 89.105469 C 71.757812 88.832031 71.515625 88.535156 71.300781 88.214844 C 71.085938 87.894531 70.90625 87.558594 70.757812 87.203125 C 70.609375 86.847656 70.5 86.480469 70.425781 86.105469 C 70.351562 85.726562 70.3125 85.34375 70.3125 84.960938 C 70.3125 84.578125 70.351562 84.195312 70.425781 83.816406 C 70.5 83.441406 70.609375 83.074219 70.757812 82.71875 C 70.90625 82.363281 71.085938 82.027344 71.300781 81.707031 C 71.515625 81.386719 71.757812 81.089844 72.027344 80.816406 C 72.300781 80.546875 72.597656 80.304688 72.917969 80.089844 C 73.238281 79.875 73.574219 79.695312 73.929688 79.546875 C 74.285156 79.398438 74.652344 79.289062 75.027344 79.214844 C 75.40625 79.140625 75.789062 79.101562 76.171875 79.101562 C 76.554688 79.101562 76.9375 79.140625 77.316406 79.214844 C 77.691406 79.289062 78.058594 79.398438 78.414062 79.546875 C 78.769531 79.695312 79.105469 79.875 79.425781 80.089844 C 79.746094 80.304688 80.042969 80.546875 80.316406 80.816406 C 80.585938 81.089844 80.828125 81.386719 81.042969 81.707031 C 81.257812 82.027344 81.4375 82.363281 81.585938 82.71875 C 81.734375 83.074219 81.84375 83.441406 81.917969 83.816406 C 81.992188 84.195312 82.03125 84.578125 82.03125 84.960938 Z M 82.03125 84.960938 " fill-opacity="1" fill-rule="nonzero"/><path fill="#38b6ff" d="M 117.1875 84.960938 C 117.1875 85.34375 117.148438 85.726562 117.074219 86.105469 C 117 86.480469 116.890625 86.847656 116.742188 87.203125 C 116.59375 87.558594 116.414062 87.894531 116.199219 88.214844 C 115.984375 88.535156 115.742188 88.832031 115.472656 89.105469 C 115.199219 89.375 114.902344 89.617188 114.582031 89.832031 C 114.261719 90.046875 113.925781 90.226562 113.570312 90.375 C 113.214844 90.523438 112.847656 90.632812 112.472656 90.707031 C 112.09375 90.78125 111.710938 90.820312 111.328125 90.820312 C 110.945312 90.820312 110.5625 90.78125 110.183594 90.707031 C 109.808594 90.632812 109.441406 90.523438 109.085938 90.375 C 108.730469 90.226562 108.394531 90.046875 108.074219 89.832031 C 107.753906 89.617188 107.457031 89.375 107.183594 89.105469 C 106.914062 88.832031 106.671875 88.535156 106.457031 88.214844 C 106.242188 87.894531 106.0625 87.558594 105.914062 87.203125 C 105.765625 86.847656 105.65625 86.480469 105.582031 86.105469 C 105.507812 85.726562 105.46875 85.34375 105.46875 84.960938 C 105.46875 84.578125 105.507812 84.195312 105.582031 83.816406 C 105.65625 83.441406 105.765625 83.074219 105.914062 82.71875 C 106.0625 82.363281 106.242188 82.027344 106.457031 81.707031 C 106.671875 81.386719 106.914062 81.089844 107.183594 80.816406 C 107.457031 80.546875 107.753906 80.304688 108.074219 80.089844 C 108.394531 79.875 108.730469 79.695312 109.085938 79.546875 C 109.441406 79.398438 109.808594 79.289062 110.183594 79.214844 C 110.5625 79.140625 110.945312 79.101562 111.328125 79.101562 C 111.710938 79.101562 112.09375 79.140625 112.472656 79.214844 C 112.847656 79.289062 113.214844 79.398438 113.570312 79.546875 C 113.925781 79.695312 114.261719 79.875 114.582031 80.089844 C 114.902344 80.304688 115.199219 80.546875 115.472656 80.816406 C 115.742188 81.089844 115.984375 81.386719 116.199219 81.707031 C 116.414062 82.027344 116.59375 82.363281 116.742188 82.71875 C 116.890625 83.074219 117 83.441406 117.074219 83.816406 C 117.148438 84.195312 117.1875 84.578125 117.1875 84.960938 Z M 117.1875 84.960938 " fill-opacity="1" fill-rule="nonzero"/><path fill="#38b6ff" d="M 257.8125 160.253906 C 257.8125 151.171875 250.195312 143.554688 241.113281 143.554688 L 133.886719 143.554688 C 124.804688 143.554688 117.1875 151.171875 117.1875 160.253906 L 117.1875 226.464844 C 117.1875 235.546875 124.804688 243.164062 133.886719 243.164062 L 241.113281 243.164062 C 250.195312 243.164062 257.8125 235.546875 257.8125 226.464844 Z M 246.09375 226.464844 C 246.09375 229.101562 243.75 231.445312 241.113281 231.445312 L 133.886719 231.445312 C 131.25 231.445312 128.90625 229.101562 128.90625 226.464844 L 128.90625 160.253906 C 128.90625 157.617188 131.25 155.273438 133.886719 155.273438 L 241.113281 155.273438 C 243.75 155.273438 246.09375 157.617188 246.09375 160.253906 Z M 246.09375 226.464844 " fill-opacity="1" fill-rule="nonzero"/><path fill="#38b6ff" d="M 167.871094 184.277344 C 167.871094 183.398438 167.871094 182.8125 167.871094 181.933594 C 167.871094 181.347656 167.871094 180.46875 167.871094 179.296875 C 167.871094 178.125 167.578125 177.246094 167.578125 176.367188 L 138.867188 188.085938 C 138.28125 189.84375 138.28125 191.308594 138.28125 193.066406 C 138.28125 194.824219 138.574219 196.582031 138.867188 198.632812 L 167.578125 210.351562 C 167.578125 210.058594 167.871094 209.472656 167.871094 208.886719 C 167.871094 208.300781 167.871094 207.714844 168.164062 207.128906 C 168.164062 206.542969 168.164062 205.957031 168.164062 205.664062 C 168.164062 205.371094 168.164062 204.785156 168.164062 204.492188 C 168.164062 203.613281 168.164062 203.027344 168.164062 202.148438 C 168.164062 201.269531 167.871094 200.390625 167.871094 199.511719 L 149.414062 193.066406 L 167.578125 186.621094 C 167.871094 185.742188 167.871094 185.15625 167.871094 184.277344 Z M 167.871094 184.277344 " fill-opacity="1" fill-rule="nonzero"/><path fill="#38b6ff" d="M 195.703125 167.285156 C 194.824219 167.285156 193.945312 167.285156 193.066406 167.285156 C 192.1875 167.285156 191.308594 167.578125 190.429688 167.578125 L 173.730469 217.089844 C 174.902344 217.382812 176.074219 217.382812 176.953125 217.675781 C 177.832031 217.675781 178.710938 217.675781 179.589844 217.675781 C 180.46875 217.675781 181.347656 217.675781 182.226562 217.675781 C 183.105469 217.675781 183.984375 217.382812 184.863281 217.382812 L 201.5625 167.871094 C 200.390625 167.578125 199.21875 167.578125 198.339844 167.285156 C 197.460938 167.285156 196.582031 167.285156 195.703125 167.285156 Z M 195.703125 167.285156 " fill-opacity="1" fill-rule="nonzero"/><path fill="#38b6ff" d="M 207.421875 176.074219 C 207.128906 176.953125 207.128906 177.832031 207.128906 179.003906 C 207.128906 180.175781 207.128906 181.054688 207.128906 181.640625 C 207.128906 182.519531 207.128906 183.105469 207.128906 183.984375 C 207.128906 184.863281 207.421875 185.742188 207.421875 186.621094 L 225.585938 193.066406 L 207.421875 199.21875 C 207.128906 200.097656 207.128906 200.976562 207.128906 201.855469 C 207.128906 202.734375 207.128906 203.613281 207.128906 204.199219 C 207.128906 204.492188 207.128906 205.078125 207.128906 205.371094 C 207.128906 205.957031 207.128906 206.542969 207.128906 206.835938 C 207.128906 207.421875 207.128906 208.007812 207.421875 208.59375 C 207.714844 209.179688 207.714844 209.472656 207.714844 210.058594 L 236.425781 198.339844 C 237.011719 196.582031 237.011719 194.53125 237.011719 192.773438 C 237.011719 191.015625 236.71875 189.257812 236.425781 187.792969 Z M 207.421875 176.074219 " fill-opacity="1" fill-rule="nonzero"/><path fill="#38b6ff" d="M 339.84375 246.09375 L 269.53125 246.09375 C 263.085938 246.09375 257.8125 251.367188 257.8125 257.8125 L 257.8125 281.25 C 257.8125 287.695312 263.085938 292.96875 269.53125 292.96875 L 339.84375 292.96875 C 346.289062 292.96875 351.5625 287.695312 351.5625 281.25 L 351.5625 257.8125 C 351.5625 251.367188 346.289062 246.09375 339.84375 246.09375 Z M 269.53125 281.25 L 269.53125 257.8125 L 339.84375 257.8125 L 339.84375 281.25 Z M 269.53125 281.25 " fill-opacity="1" fill-rule="nonzero"/><path fill="#38b6ff" d="M 328.125 260.742188 C 322.851562 260.742188 319.921875 263.671875 318.164062 265.429688 C 316.992188 266.601562 316.992188 266.601562 316.40625 266.601562 C 315.820312 266.601562 315.820312 266.601562 314.648438 265.429688 C 312.890625 263.671875 309.960938 260.742188 304.6875 260.742188 C 299.414062 260.742188 296.484375 263.671875 294.726562 265.429688 C 293.554688 266.601562 293.554688 266.601562 292.96875 266.601562 C 292.382812 266.601562 292.382812 266.601562 291.210938 265.429688 C 289.453125 263.671875 286.523438 260.742188 281.25 260.742188 C 278.027344 260.742188 275.390625 263.378906 275.390625 266.601562 C 275.390625 269.824219 278.027344 272.460938 281.25 272.460938 C 281.835938 272.460938 281.835938 272.460938 283.007812 273.632812 C 284.765625 275.390625 287.695312 278.320312 292.96875 278.320312 C 298.242188 278.320312 301.171875 275.390625 302.929688 273.632812 C 304.101562 272.460938 304.101562 272.460938 304.6875 272.460938 C 305.273438 272.460938 305.273438 272.460938 306.445312 273.632812 C 308.203125 275.390625 311.132812 278.320312 316.40625 278.320312 C 321.679688 278.320312 324.609375 275.390625 326.367188 273.632812 C 327.539062 272.460938 327.539062 272.460938 328.125 272.460938 C 331.347656 272.460938 333.984375 269.824219 333.984375 266.601562 C 333.984375 263.378906 331.347656 260.742188 328.125 260.742188 Z M 328.125 260.742188 " fill-opacity="1" fill-rule="nonzero"/><path fill="#38b6ff" d="M 304.6875 175.78125 C 297.070312 175.78125 290.625 180.761719 288.28125 187.5 L 269.53125 187.5 L 269.53125 199.21875 L 288.28125 199.21875 C 290.625 205.957031 297.070312 210.9375 304.6875 210.9375 C 314.355469 210.9375 322.265625 203.027344 322.265625 193.359375 C 322.265625 183.691406 314.355469 175.78125 304.6875 175.78125 Z M 304.6875 199.21875 C 301.464844 199.21875 298.828125 196.582031 298.828125 193.359375 C 298.828125 190.136719 301.464844 187.5 304.6875 187.5 C 307.910156 187.5 310.546875 190.136719 310.546875 193.359375 C 310.546875 196.582031 307.910156 199.21875 304.6875 199.21875 Z M 304.6875 199.21875 " fill-opacity="1" fill-rule="nonzero"/></svg>