<svg xmlns="http://www.w3.org/2000/svg" xmlns:xlink="http://www.w3.org/1999/xlink" width="500" zoomAndPan="magnify" viewBox="0 0 375 374.999991" height="500" preserveAspectRatio="xMidYMid meet" version="1.0"><defs><clipPath id="23ba244448"><path d="M 174 0 L 307.78125 0 L 307.78125 143 L 174 143 Z M 174 0 " clip-rule="nonzero"/></clipPath><clipPath id="7c3e630442"><path d="M 174 120 L 307.78125 120 L 307.78125 255 L 174 255 Z M 174 120 " clip-rule="nonzero"/></clipPath><clipPath id="37da1bbe1b"><path d="M 67.03125 0 L 201 0 L 201 143 L 67.03125 143 Z M 67.03125 0 " clip-rule="nonzero"/></clipPath><clipPath id="0982ae76d5"><path d="M 67.03125 116 L 201 116 L 201 259 L 67.03125 259 Z M 67.03125 116 " clip-rule="nonzero"/></clipPath><clipPath id="98c4538d31"><path d="M 67.03125 232 L 201 232 L 201 375 L 67.03125 375 Z M 67.03125 232 " clip-rule="nonzero"/></clipPath></defs><g clip-path="url(#23ba244448)"><path fill="#62c7c9" d="M 236.492188 142.925781 L 187.40625 142.925781 C 180.050781 142.925781 174.03125 136.902344 174.03125 129.542969 L 174.03125 13.488281 C 174.03125 6.128906 180.050781 0.105469 187.40625 0.105469 L 236.492188 0.105469 C 275.816406 0.105469 307.78125 32.09375 307.78125 71.449219 C 307.78125 110.800781 275.816406 142.792969 236.492188 142.792969 Z M 200.78125 116.15625 L 236.492188 116.15625 C 261.101562 116.15625 281.03125 96.078125 281.03125 71.582031 C 281.03125 47.085938 260.96875 27.007812 236.492188 27.007812 L 200.78125 27.007812 L 200.78125 116.289062 Z M 200.78125 116.15625 " fill-opacity="1" fill-rule="nonzero"/></g><g clip-path="url(#7c3e630442)"><path fill="#62c7c9" d="M 240.90625 254.425781 C 203.992188 254.425781 174.03125 224.445312 174.03125 187.5 C 174.03125 150.554688 203.992188 120.574219 240.90625 120.574219 C 277.820312 120.574219 307.78125 150.554688 307.78125 187.5 C 307.78125 224.445312 277.820312 254.425781 240.90625 254.425781 Z M 240.90625 147.34375 C 218.835938 147.34375 200.78125 165.414062 200.78125 187.5 C 200.78125 209.585938 218.835938 227.65625 240.90625 227.65625 C 262.976562 227.65625 281.03125 209.585938 281.03125 187.5 C 281.03125 165.414062 262.976562 147.34375 240.90625 147.34375 Z M 240.90625 147.34375 " fill-opacity="1" fill-rule="nonzero"/></g><g clip-path="url(#37da1bbe1b)"><path fill="#0f2546" d="M 187.40625 142.925781 L 138.320312 142.925781 C 98.996094 142.925781 67.03125 110.933594 67.03125 71.582031 C 67.03125 32.230469 98.996094 0.238281 138.320312 0.238281 L 187.40625 0.238281 C 194.761719 0.238281 200.78125 6.261719 200.78125 13.625 L 200.78125 129.542969 C 200.78125 136.902344 194.761719 142.925781 187.40625 142.925781 Z M 138.320312 26.875 C 113.710938 26.875 93.78125 46.953125 93.78125 71.449219 C 93.78125 95.945312 113.84375 116.023438 138.320312 116.023438 L 174.03125 116.023438 L 174.03125 26.875 Z M 138.320312 26.875 " fill-opacity="1" fill-rule="nonzero"/></g><g clip-path="url(#0982ae76d5)"><path fill="#0f2546" d="M 187.40625 258.84375 L 138.320312 258.84375 C 98.996094 258.84375 67.03125 226.851562 67.03125 187.5 C 67.03125 148.148438 98.996094 116.15625 138.320312 116.15625 L 187.40625 116.15625 C 194.761719 116.15625 200.78125 122.179688 200.78125 129.542969 L 200.78125 245.59375 C 200.78125 252.953125 194.761719 258.976562 187.40625 258.976562 Z M 138.320312 142.792969 C 113.710938 142.792969 93.78125 162.871094 93.78125 187.367188 C 93.78125 211.863281 113.84375 231.941406 138.320312 231.941406 L 174.03125 231.941406 L 174.03125 142.660156 L 138.320312 142.660156 Z M 138.320312 142.792969 " fill-opacity="1" fill-rule="nonzero"/></g><g clip-path="url(#98c4538d31)"><path fill="#0f2546" d="M 187.40625 374.894531 L 138.320312 374.894531 C 98.996094 374.894531 67.03125 342.90625 67.03125 303.550781 C 67.03125 264.199219 98.996094 232.207031 138.320312 232.207031 L 187.40625 232.207031 C 194.761719 232.207031 200.78125 238.230469 200.78125 245.59375 L 200.78125 361.644531 C 200.78125 369.007812 194.761719 375.03125 187.40625 375.03125 Z M 138.320312 258.84375 C 113.710938 258.84375 93.78125 278.921875 93.78125 303.417969 C 93.78125 327.914062 113.84375 347.992188 138.320312 347.992188 L 174.03125 347.992188 L 174.03125 258.710938 L 138.320312 258.710938 Z M 138.320312 258.84375 " fill-opacity="1" fill-rule="nonzero"/></g></svg>