<svg xmlns="http://www.w3.org/2000/svg" xmlns:xlink="http://www.w3.org/1999/xlink" width="500" zoomAndPan="magnify" viewBox="0 0 375 374.999991" height="500" preserveAspectRatio="xMidYMid meet" version="1.0"><defs><clipPath id="c42dd20884"><path d="M 0 48.515625 L 375 48.515625 L 375 326.765625 L 0 326.765625 Z M 0 48.515625 " clip-rule="nonzero"/></clipPath></defs><g clip-path="url(#c42dd20884)"><path fill="#38b6ff" d="M 361.085938 48.675781 L 13.914062 48.675781 C 6.398438 48.675781 0.277344 54.789062 0.277344 62.308594 L 0.277344 313.136719 C 0.277344 320.65625 6.398438 326.769531 13.914062 326.769531 L 361.089844 326.769531 C 368.613281 326.769531 374.726562 320.65625 374.726562 313.136719 L 374.726562 62.304688 C 374.722656 54.785156 368.605469 48.675781 361.085938 48.675781 Z M 13.914062 54.125 L 361.089844 54.125 C 365.597656 54.125 369.273438 57.792969 369.273438 62.304688 L 369.273438 102.28125 C 368.972656 102.234375 368.671875 102.1875 368.359375 102.1875 L 6.640625 102.1875 C 6.328125 102.1875 6.027344 102.238281 5.730469 102.28125 L 5.730469 62.304688 C 5.730469 57.792969 9.402344 54.125 13.914062 54.125 Z M 5.730469 108.550781 C 5.730469 108.046875 6.140625 107.640625 6.640625 107.640625 L 368.355469 107.640625 C 368.859375 107.640625 369.269531 108.046875 369.269531 108.550781 L 369.269531 307.277344 C 369.269531 307.777344 368.859375 308.183594 368.355469 308.183594 L 6.640625 308.183594 C 6.140625 308.183594 5.730469 307.777344 5.730469 307.277344 Z M 361.085938 321.3125 L 13.914062 321.3125 C 9.546875 321.3125 5.996094 317.863281 5.777344 313.550781 C 6.058594 313.585938 6.34375 313.640625 6.640625 313.640625 L 368.355469 313.640625 C 368.65625 313.640625 368.941406 313.585938 369.222656 313.550781 C 369.003906 317.863281 365.453125 321.3125 361.085938 321.3125 Z M 361.085938 321.3125 " fill-opacity="1" fill-rule="nonzero"/></g><path fill="#38b6ff" d="M 91.371094 89.871094 C 97.757812 89.871094 102.957031 84.667969 102.957031 78.28125 C 102.957031 71.894531 97.757812 66.691406 91.371094 66.691406 C 84.980469 66.691406 79.78125 71.894531 79.78125 78.28125 C 79.78125 84.667969 84.980469 89.871094 91.371094 89.871094 Z M 91.371094 72.148438 C 94.753906 72.148438 97.507812 74.902344 97.507812 78.285156 C 97.507812 81.667969 94.753906 84.421875 91.371094 84.421875 C 87.980469 84.421875 85.234375 81.667969 85.234375 78.285156 C 85.234375 74.902344 87.980469 72.148438 91.371094 72.148438 Z M 91.371094 72.148438 " fill-opacity="1" fill-rule="nonzero"/><path fill="#38b6ff" d="M 61.765625 89.871094 C 68.160156 89.871094 73.355469 84.667969 73.355469 78.28125 C 73.355469 71.894531 68.160156 66.691406 61.765625 66.691406 C 55.378906 66.691406 50.179688 71.894531 50.179688 78.28125 C 50.179688 84.667969 55.378906 89.871094 61.765625 89.871094 Z M 61.765625 72.148438 C 65.152344 72.148438 67.902344 74.902344 67.902344 78.285156 C 67.902344 81.667969 65.152344 84.421875 61.765625 84.421875 C 58.382812 84.421875 55.628906 81.667969 55.628906 78.285156 C 55.628906 74.902344 58.382812 72.148438 61.765625 72.148438 Z M 61.765625 72.148438 " fill-opacity="1" fill-rule="nonzero"/><path fill="#38b6ff" d="M 32.164062 89.871094 C 38.554688 89.871094 43.753906 84.667969 43.753906 78.28125 C 43.753906 71.894531 38.554688 66.691406 32.164062 66.691406 C 25.777344 66.691406 20.578125 71.894531 20.578125 78.28125 C 20.578125 84.667969 25.777344 89.871094 32.164062 89.871094 Z M 32.164062 72.148438 C 35.550781 72.148438 38.300781 74.902344 38.300781 78.285156 C 38.300781 81.667969 35.550781 84.421875 32.164062 84.421875 C 28.78125 84.421875 26.027344 81.667969 26.027344 78.285156 C 26.027344 74.902344 28.785156 72.148438 32.164062 72.148438 Z M 32.164062 72.148438 " fill-opacity="1" fill-rule="nonzero"/><path fill="#38b6ff" d="M 274.984375 212.355469 L 240.300781 247.109375 C 236.339844 251.378906 238.574219 254.847656 245.074219 261 C 248.671875 264.40625 251.785156 266.132812 254.339844 266.132812 C 255.78125 266.132812 257.035156 265.601562 258.238281 264.464844 L 305.15625 217.570312 C 306.476562 215.988281 307.207031 213.527344 307.007812 211.28125 C 306.828125 209.324219 305.957031 207.652344 304.6875 206.617188 L 258.019531 160 C 256.554688 158.550781 255.15625 157.839844 253.726562 157.839844 C 250.847656 157.839844 247.980469 160.699219 244.625 164.050781 C 241.984375 166.695312 239.699219 168.980469 238.734375 171.167969 C 238.023438 172.742188 237.574219 174.902344 240.378906 177.707031 Z M 248.523438 167.867188 C 250.023438 166.367188 252.460938 163.941406 253.613281 163.378906 C 253.742188 163.46875 253.925781 163.621094 254.160156 163.855469 L 301.03125 210.65625 C 301.273438 210.851562 301.519531 211.132812 301.578125 211.769531 C 301.65625 212.683594 301.273438 213.710938 301.136719 213.886719 L 254.363281 260.671875 L 254.339844 263.398438 L 254.339844 260.671875 C 254.324219 260.671875 252.625 260.625 248.828125 257.03125 C 244.363281 252.808594 243.851562 251.507812 243.757812 251.464844 C 243.796875 251.390625 243.917969 251.21875 244.234375 250.878906 L 282.6875 212.339844 L 244.234375 173.847656 C 243.992188 173.605469 243.84375 173.425781 243.753906 173.296875 C 244.367188 172.019531 246.464844 169.933594 248.523438 167.867188 Z M 248.523438 167.867188 " fill-opacity="1" fill-rule="nonzero"/><path fill="#38b6ff" d="M 116.820312 264.511719 C 117.96875 265.601562 119.222656 266.132812 120.664062 266.132812 C 123.210938 266.132812 126.328125 264.40625 129.929688 261 C 136.429688 254.847656 138.660156 251.375 134.628906 247.039062 L 100.019531 212.355469 L 134.625 177.710938 C 137.425781 174.917969 136.976562 172.75 136.28125 171.1875 C 135.296875 168.976562 133.003906 166.683594 130.34375 164.027344 C 127.023438 160.707031 124.160156 157.84375 121.273438 157.84375 C 119.839844 157.84375 118.433594 158.554688 116.980469 160.003906 L 70.507812 206.445312 C 69.035156 207.660156 68.167969 209.335938 67.996094 211.292969 C 67.792969 213.523438 68.523438 215.984375 70.007812 217.753906 Z M 74.167969 210.488281 L 120.839844 163.855469 C 121.078125 163.621094 121.257812 163.46875 121.382812 163.382812 C 122.554688 163.949219 124.984375 166.386719 126.492188 167.886719 C 128.445312 169.839844 130.460938 171.847656 131.246094 173.316406 C 131.152344 173.4375 131.003906 173.621094 130.769531 173.851562 L 92.316406 212.34375 L 130.703125 250.8125 C 131 251.128906 131.117188 251.3125 131.1875 251.277344 C 131.070312 251.6875 130.347656 253.089844 126.175781 257.03125 C 122.375 260.625 120.683594 260.671875 120.664062 260.671875 L 74.03125 214.078125 C 73.734375 213.714844 73.34375 212.6875 73.421875 211.78125 C 73.480469 211.136719 73.734375 210.855469 74.167969 210.488281 Z M 74.167969 210.488281 " fill-opacity="1" fill-rule="nonzero"/><path fill="#38b6ff" d="M 158.011719 273.019531 C 162.128906 275.019531 164.75 275.878906 166.804688 275.878906 C 170.542969 275.878906 171.910156 273.078125 172.492188 271.886719 L 227.859375 158.390625 C 230.726562 152.507812 226.816406 149.109375 220.0625 145.816406 C 216.371094 144.019531 213.65625 143.179688 211.515625 143.179688 C 207.425781 143.179688 205.972656 146.148438 205.355469 147.417969 L 149.988281 260.902344 C 149.429688 262.050781 148.125 264.710938 150.058594 267.507812 C 151.253906 269.257812 153.558594 270.847656 158.011719 273.019531 Z M 154.894531 263.296875 L 210.253906 149.808594 C 210.828125 148.628906 210.976562 148.628906 211.515625 148.628906 C 212.371094 148.628906 214.144531 148.988281 217.671875 150.714844 C 224.023438 153.8125 223.527344 154.832031 222.957031 156.003906 L 167.589844 269.496094 C 167.222656 270.238281 167.054688 270.386719 167.046875 270.402344 C 167.042969 270.402344 166.976562 270.421875 166.800781 270.421875 C 165.699219 270.421875 163.542969 269.648438 160.398438 268.121094 C 155.15625 265.554688 154.554688 264.5 154.492188 264.359375 C 154.496094 264.3125 154.515625 264.082031 154.894531 263.296875 Z M 154.894531 263.296875 " fill-opacity="1" fill-rule="nonzero"/></svg>