<svg xmlns="http://www.w3.org/2000/svg" xmlns:xlink="http://www.w3.org/1999/xlink" width="500" zoomAndPan="magnify" viewBox="0 0 375 374.999991" height="500" preserveAspectRatio="xMidYMid meet" version="1.0"><defs><clipPath id="97e79db824"><path d="M 0 49.6875 L 375 49.6875 L 375 325.6875 L 0 325.6875 Z M 0 49.6875 " clip-rule="nonzero"/></clipPath></defs><g clip-path="url(#97e79db824)"><path fill="#38b6ff" d="M 349.039062 325.15625 L 25.875 325.15625 C 11.625 325.15625 0 313.53125 0 299.277344 L 0 75.722656 C 0 61.46875 11.625 49.84375 25.875 49.84375 L 349.039062 49.84375 C 363.292969 49.84375 374.914062 61.46875 374.914062 75.722656 L 374.914062 299.195312 C 375 313.53125 363.375 325.15625 349.039062 325.15625 Z M 25.875 58.328125 C 16.289062 58.328125 8.484375 66.132812 8.484375 75.722656 L 8.484375 299.195312 C 8.484375 308.78125 16.289062 316.585938 25.875 316.585938 L 349.039062 316.585938 C 358.625 316.585938 366.429688 308.78125 366.429688 299.195312 L 366.429688 75.722656 C 366.429688 66.132812 358.625 58.328125 349.039062 58.328125 C 349.039062 58.328125 25.875 58.328125 25.875 58.328125 Z M 25.875 58.328125 " fill-opacity="1" fill-rule="nonzero"/></g><path fill="#38b6ff" d="M 370.757812 112.203125 L 4.242188 112.203125 C 1.867188 112.203125 0 110.335938 0 107.960938 C 0 105.585938 1.867188 103.71875 4.242188 103.71875 L 370.757812 103.71875 C 373.132812 103.71875 375 105.585938 375 107.960938 C 375 110.335938 373.046875 112.203125 370.757812 112.203125 Z M 370.757812 112.203125 " fill-opacity="1" fill-rule="nonzero"/><path fill="#38b6ff" d="M 129.890625 97.527344 C 120.816406 97.527344 113.433594 90.144531 113.433594 81.066406 C 113.433594 71.988281 120.816406 64.605469 129.890625 64.605469 C 138.96875 64.605469 146.351562 71.988281 146.351562 81.066406 C 146.351562 90.058594 138.96875 97.527344 129.890625 97.527344 Z M 129.890625 73.007812 C 125.480469 73.007812 121.917969 76.570312 121.917969 80.980469 C 121.917969 85.394531 125.480469 88.957031 129.890625 88.957031 C 134.304688 88.957031 137.867188 85.394531 137.867188 80.980469 C 137.867188 76.570312 134.304688 73.007812 129.890625 73.007812 Z M 129.890625 73.007812 " fill-opacity="1" fill-rule="nonzero"/><path fill="#38b6ff" d="M 187.5 97.527344 C 178.421875 97.527344 171.039062 90.144531 171.039062 81.066406 C 171.039062 71.988281 178.421875 64.605469 187.5 64.605469 C 196.578125 64.605469 203.960938 71.988281 203.960938 81.066406 C 203.960938 90.058594 196.578125 97.527344 187.5 97.527344 Z M 187.5 73.007812 C 183.089844 73.007812 179.523438 76.570312 179.523438 80.980469 C 179.523438 85.394531 183.089844 88.957031 187.5 88.957031 C 191.910156 88.957031 195.476562 85.394531 195.476562 80.980469 C 195.476562 76.570312 191.910156 73.007812 187.5 73.007812 Z M 187.5 73.007812 " fill-opacity="1" fill-rule="nonzero"/><path fill="#38b6ff" d="M 245.023438 97.527344 C 235.945312 97.527344 228.5625 90.144531 228.5625 81.066406 C 228.5625 71.988281 235.945312 64.605469 245.023438 64.605469 C 254.101562 64.605469 261.480469 71.988281 261.480469 81.066406 C 261.566406 90.058594 254.101562 97.527344 245.023438 97.527344 Z M 245.023438 73.007812 C 240.609375 73.007812 237.046875 76.570312 237.046875 80.980469 C 237.046875 85.394531 240.609375 88.957031 245.023438 88.957031 C 249.433594 88.957031 252.996094 85.394531 252.996094 80.980469 C 253.082031 76.570312 249.433594 73.007812 245.023438 73.007812 Z M 245.023438 73.007812 " fill-opacity="1" fill-rule="nonzero"/><path fill="#38b6ff" d="M 82.210938 85.222656 L 33.9375 85.222656 C 31.5625 85.222656 29.695312 83.355469 29.695312 80.980469 C 29.695312 78.605469 31.5625 76.738281 33.9375 76.738281 L 82.210938 76.738281 C 84.585938 76.738281 86.453125 78.605469 86.453125 80.980469 C 86.453125 83.355469 84.585938 85.222656 82.210938 85.222656 Z M 82.210938 85.222656 " fill-opacity="1" fill-rule="nonzero"/><path fill="#38b6ff" d="M 340.976562 85.222656 L 292.703125 85.222656 C 290.328125 85.222656 288.460938 83.355469 288.460938 80.980469 C 288.460938 78.605469 290.328125 76.738281 292.703125 76.738281 L 340.976562 76.738281 C 343.355469 76.738281 345.21875 78.605469 345.21875 80.980469 C 345.21875 83.355469 343.355469 85.222656 340.976562 85.222656 Z M 340.976562 85.222656 " fill-opacity="1" fill-rule="nonzero"/><path fill="#7e9dac" d="M 186.3125 212.484375 C 182.238281 212.484375 178.421875 211.808594 175.539062 210.449219 L 109.53125 178.804688 C 105.796875 177.023438 103.675781 174.050781 103.675781 170.742188 C 103.675781 168.367188 104.78125 163.785156 112.414062 160.136719 L 172.738281 131.207031 C 181.050781 127.21875 192.761719 126.625 199.378906 129.851562 L 265.382812 161.496094 C 269.117188 163.277344 271.238281 166.246094 271.238281 169.554688 C 271.238281 171.929688 270.136719 176.511719 262.5 180.160156 L 202.175781 209.09375 C 197.511719 211.296875 191.742188 212.484375 186.3125 212.484375 Z M 112.246094 170.574219 C 112.414062 170.742188 112.753906 170.914062 113.179688 171.167969 L 179.183594 202.8125 C 183.089844 204.679688 191.996094 204.59375 198.53125 201.457031 L 258.851562 172.527344 C 261.3125 171.335938 262.332031 170.234375 262.667969 169.726562 C 262.5 169.554688 262.246094 169.386719 261.738281 169.132812 L 195.730469 137.484375 C 191.828125 135.621094 182.917969 135.703125 176.386719 138.84375 L 116.0625 167.773438 C 113.601562 168.878906 112.585938 169.980469 112.246094 170.574219 Z M 262.839844 169.894531 Z M 262.839844 169.894531 " fill-opacity="1" fill-rule="nonzero"/><path fill="#7e9dac" d="M 186.3125 256.773438 C 182.238281 256.773438 178.421875 256.09375 175.539062 254.738281 L 109.53125 223.089844 C 105.796875 221.308594 103.675781 218.339844 103.675781 215.03125 C 103.675781 212.65625 104.78125 208.074219 112.414062 204.425781 L 145.671875 188.476562 C 147.792969 187.457031 150.339844 188.390625 151.359375 190.511719 C 152.375 192.632812 151.441406 195.179688 149.320312 196.195312 L 116.0625 212.144531 C 113.601562 213.335938 112.585938 214.4375 112.246094 214.945312 C 112.414062 215.117188 112.753906 215.285156 113.179688 215.539062 L 179.183594 247.1875 C 183.089844 249.050781 191.996094 248.96875 198.53125 245.828125 L 258.851562 216.898438 C 261.3125 215.710938 262.332031 214.605469 262.667969 214.097656 C 262.5 213.929688 262.246094 213.757812 261.738281 213.503906 L 225.59375 196.195312 C 223.472656 195.179688 222.625 192.632812 223.558594 190.511719 C 224.492188 188.390625 227.121094 187.542969 229.242188 188.476562 L 265.382812 205.785156 C 269.117188 207.566406 271.238281 210.535156 271.238281 213.84375 C 271.238281 216.21875 270.136719 220.800781 262.5 224.449219 L 202.175781 253.378906 C 197.511719 255.585938 191.742188 256.773438 186.3125 256.773438 Z M 262.839844 214.183594 Z M 262.839844 214.183594 " fill-opacity="1" fill-rule="nonzero"/><path fill="#7e9dac" d="M 186.3125 301.058594 C 182.238281 301.058594 178.421875 300.382812 175.539062 299.023438 L 109.53125 267.378906 C 105.796875 265.597656 103.675781 262.628906 103.675781 259.320312 C 103.675781 256.941406 104.78125 252.363281 112.414062 248.714844 L 145.671875 232.761719 C 147.792969 231.746094 150.339844 232.679688 151.359375 234.800781 C 152.375 236.921875 151.441406 239.464844 149.320312 240.484375 L 116.0625 256.433594 C 113.601562 257.621094 112.585938 258.722656 112.246094 259.234375 C 112.414062 259.402344 112.753906 259.574219 113.179688 259.828125 L 179.183594 291.472656 C 183.089844 293.339844 191.996094 293.253906 198.53125 290.117188 L 258.851562 261.183594 C 261.3125 259.996094 262.332031 258.894531 262.667969 258.386719 C 262.5 258.214844 262.246094 258.046875 261.738281 257.792969 L 225.59375 240.484375 C 223.472656 239.464844 222.625 236.921875 223.558594 234.800781 C 224.492188 232.679688 227.121094 231.828125 229.242188 232.761719 L 265.382812 250.070312 C 269.117188 251.851562 271.238281 254.820312 271.238281 258.128906 C 271.238281 260.507812 270.136719 265.085938 262.5 268.734375 L 202.175781 297.667969 C 197.511719 299.957031 191.742188 301.058594 186.3125 301.058594 Z M 262.839844 258.46875 Z M 262.839844 258.46875 " fill-opacity="1" fill-rule="nonzero"/></svg>