<svg xmlns="http://www.w3.org/2000/svg" xmlns:xlink="http://www.w3.org/1999/xlink" width="500" zoomAndPan="magnify" viewBox="0 0 375 374.999991" height="500" preserveAspectRatio="xMidYMid meet" version="1.0"><defs><clipPath id="0430cc41b0"><path d="M 5.15625 0 L 154 0 L 154 93 L 5.15625 93 Z M 5.15625 0 " clip-rule="nonzero"/></clipPath><clipPath id="5780a62386"><path d="M 5.15625 41 L 156 41 L 156 375 L 5.15625 375 Z M 5.15625 41 " clip-rule="nonzero"/></clipPath><clipPath id="973a5b01d0"><path d="M 288 82 L 369.65625 82 L 369.65625 216 L 288 216 Z M 288 82 " clip-rule="nonzero"/></clipPath><clipPath id="4875bed25a"><path d="M 216 42 L 369.65625 42 L 369.65625 133 L 216 133 Z M 216 42 " clip-rule="nonzero"/></clipPath></defs><g clip-path="url(#0430cc41b0)"><path fill="#ef0a1b" d="M 80.804688 92.070312 C 79.945312 92.070312 79.082031 91.847656 78.308594 91.402344 L 77.820312 91.117188 L 7.746094 50.472656 C 6.21875 49.585938 5.273438 47.960938 5.261719 46.195312 C 5.25 44.429688 6.171875 42.789062 7.6875 41.882812 L 76.109375 0.953125 C 77.683594 0.0117188 79.652344 0.0117188 81.226562 0.957031 L 150.953125 42.777344 C 152.457031 43.679688 153.378906 45.308594 153.371094 47.0625 C 153.367188 48.820312 152.441406 50.441406 150.929688 51.335938 L 83.339844 91.375 C 82.558594 91.839844 81.683594 92.070312 80.804688 92.070312 Z M 20.058594 46.09375 L 80.777344 81.3125 L 138.664062 47.023438 L 78.664062 11.035156 Z M 20.058594 46.09375 " fill-opacity="1" fill-rule="nonzero"/></g><g clip-path="url(#5780a62386)"><path fill="#ef0a1b" d="M 150.386719 375.003906 C 149.554688 375.003906 148.71875 374.792969 147.96875 374.375 L 7.824219 296.539062 C 6.242188 295.660156 5.261719 293.992188 5.261719 292.183594 L 5.261719 46.160156 C 5.261719 44.378906 6.214844 42.730469 7.757812 41.84375 C 9.300781 40.953125 11.199219 40.957031 12.742188 41.847656 L 82.8125 82.492188 C 84.347656 83.382812 85.292969 85.027344 85.292969 86.804688 L 85.292969 247.996094 L 152.890625 287.394531 C 154.421875 288.289062 155.367188 289.929688 155.367188 291.699219 L 155.367188 370.019531 C 155.367188 371.785156 154.433594 373.417969 152.910156 374.3125 C 152.132812 374.773438 151.257812 375.003906 150.386719 375.003906 Z M 15.222656 289.25 L 145.40625 361.554688 L 145.40625 294.566406 L 77.808594 255.164062 C 76.277344 254.273438 75.332031 252.632812 75.332031 250.859375 L 75.332031 89.675781 L 15.222656 54.808594 Z M 15.222656 289.25 " fill-opacity="1" fill-rule="nonzero"/></g><path fill="#ef0a1b" d="M 80.3125 255.84375 C 79.464844 255.84375 78.617188 255.625 77.855469 255.191406 C 76.296875 254.308594 75.332031 252.652344 75.332031 250.859375 L 75.332031 86.804688 C 75.332031 85.023438 76.285156 83.378906 77.828125 82.488281 C 78.46875 82.117188 79.175781 81.902344 79.890625 81.839844 L 145.855469 42.761719 C 147.386719 41.855469 149.28125 41.832031 150.832031 42.707031 C 152.382812 43.578125 153.351562 45.210938 153.371094 46.988281 L 155.363281 209 C 155.386719 210.777344 154.460938 212.429688 152.9375 213.339844 L 82.863281 255.140625 C 82.078125 255.609375 81.195312 255.84375 80.3125 255.84375 Z M 85.292969 90.21875 L 85.292969 242.089844 L 145.371094 206.25 L 143.519531 55.726562 Z M 85.292969 90.21875 " fill-opacity="1" fill-rule="nonzero"/><path fill="#ef0a1b" d="M 150.386719 375.003906 C 149.507812 375.003906 148.628906 374.769531 147.847656 374.308594 C 146.332031 373.410156 145.40625 371.78125 145.40625 370.019531 L 145.40625 291.703125 C 145.40625 289.914062 146.359375 288.265625 147.910156 287.378906 L 290.539062 205.695312 C 292.082031 204.8125 293.976562 204.816406 295.511719 205.710938 C 297.046875 206.601562 297.996094 208.242188 297.996094 210.019531 L 297.996094 291.703125 C 297.996094 293.519531 297.003906 295.195312 295.410156 296.070312 L 152.78125 374.386719 C 152.035156 374.796875 151.210938 375.003906 150.386719 375.003906 Z M 155.367188 294.589844 L 155.367188 361.601562 L 288.035156 288.753906 L 288.035156 218.613281 Z M 155.367188 294.589844 " fill-opacity="1" fill-rule="nonzero"/><path fill="#ef0a1b" d="M 150.386719 296.683594 C 149.519531 296.683594 148.652344 296.457031 147.878906 296.007812 L 77.808594 255.164062 C 76.285156 254.277344 75.34375 252.648438 75.335938 250.886719 C 75.324219 249.121094 76.25 247.484375 77.765625 246.582031 L 147.835938 204.78125 C 147.886719 204.75 147.941406 204.71875 147.992188 204.6875 L 219.070312 165.769531 C 220.570312 164.945312 222.386719 164.953125 223.882812 165.785156 L 295.4375 205.667969 C 297.007812 206.539062 297.984375 208.191406 297.996094 209.988281 C 298.003906 211.785156 297.046875 213.449219 295.488281 214.34375 L 152.859375 296.023438 C 152.09375 296.464844 151.238281 296.683594 150.386719 296.683594 Z M 90.121094 250.808594 L 150.40625 285.949219 L 282.886719 210.078125 L 221.4375 175.832031 L 152.855469 213.386719 Z M 90.121094 250.808594 " fill-opacity="1" fill-rule="nonzero"/><path fill="#ef0a1b" d="M 293.015625 215.003906 C 292.179688 215.003906 291.34375 214.792969 290.589844 214.371094 L 219.035156 174.492188 C 217.453125 173.609375 216.472656 171.9375 216.480469 170.125 L 216.722656 87.074219 C 216.726562 85.300781 217.671875 83.664062 219.207031 82.773438 C 220.742188 81.886719 222.632812 81.882812 224.171875 82.761719 L 295.484375 123.535156 C 297.035156 124.421875 297.996094 126.070312 297.996094 127.859375 L 297.996094 210.019531 C 297.996094 211.785156 297.058594 213.421875 295.539062 214.316406 C 294.757812 214.773438 293.886719 215.003906 293.015625 215.003906 Z M 226.449219 167.21875 L 288.035156 201.539062 L 288.035156 130.75 L 226.65625 95.660156 Z M 226.449219 167.21875 " fill-opacity="1" fill-rule="nonzero"/><g clip-path="url(#973a5b01d0)"><path fill="#ef0a1b" d="M 293.015625 215.003906 C 292.140625 215.003906 291.269531 214.773438 290.492188 214.316406 C 288.96875 213.421875 288.035156 211.785156 288.035156 210.019531 L 288.035156 127.859375 C 288.035156 126.070312 288.996094 124.414062 290.550781 123.53125 L 362.105469 82.757812 C 363.644531 81.878906 365.539062 81.886719 367.070312 82.78125 C 368.605469 83.671875 369.550781 85.3125 369.550781 87.089844 L 369.550781 170.140625 C 369.550781 171.949219 368.570312 173.613281 366.992188 174.492188 L 295.4375 214.371094 C 294.683594 214.792969 293.847656 215 293.015625 215 Z M 297.996094 130.753906 L 297.996094 201.539062 L 359.589844 167.210938 L 359.589844 95.660156 Z M 297.996094 130.753906 " fill-opacity="1" fill-rule="nonzero"/></g><g clip-path="url(#4875bed25a)"><path fill="#ef0a1b" d="M 293.015625 132.84375 C 292.160156 132.84375 291.308594 132.625 290.542969 132.183594 L 219.230469 91.414062 C 217.671875 90.523438 216.714844 88.863281 216.722656 87.070312 C 216.726562 85.273438 217.699219 83.621094 219.265625 82.742188 L 290.578125 42.703125 C 292.089844 41.855469 293.933594 41.855469 295.445312 42.699219 L 367 82.738281 C 368.570312 83.617188 369.542969 85.269531 369.550781 87.070312 C 369.554688 88.867188 368.59375 90.527344 367.035156 91.417969 L 295.480469 132.1875 C 294.714844 132.625 293.863281 132.84375 293.015625 132.84375 Z M 231.808594 87.128906 L 293.019531 122.121094 L 354.4375 87.128906 L 293.019531 52.761719 Z M 231.808594 87.128906 " fill-opacity="1" fill-rule="nonzero"/></g></svg>