<svg xmlns="http://www.w3.org/2000/svg" xmlns:xlink="http://www.w3.org/1999/xlink" width="500" zoomAndPan="magnify" viewBox="0 0 375 187.499995" height="250" preserveAspectRatio="xMidYMid meet" version="1.0"><defs><clipPath id="f2d029b46c"><path d="M 6.441406 11.066406 L 289.1875 11.066406 L 289.1875 175.628906 L 6.441406 175.628906 Z M 6.441406 11.066406 " clip-rule="nonzero"/></clipPath><clipPath id="ae68a482ca"><path d="M 264.347656 31.234375 L 368.320312 31.234375 L 368.320312 151.664062 L 264.347656 151.664062 Z M 264.347656 31.234375 " clip-rule="nonzero"/></clipPath></defs><g clip-path="url(#f2d029b46c)"><path fill="#000000" d="M 6.683594 175.09375 C 6.765625 175.246094 6.917969 175.433594 7.144531 175.433594 L 72.824219 175.558594 C 72.886719 175.558594 72.9375 175.546875 72.988281 175.515625 L 73.019531 175.5 C 73.148438 175.425781 73.273438 175.265625 73.347656 175.074219 L 90.3125 130.890625 L 107.304688 84.671875 L 108.832031 88.800781 L 125.105469 133.054688 C 125.351562 133.734375 125.394531 134.480469 125.226562 135.171875 L 172.386719 135.171875 L 130.765625 26.722656 L 124.960938 11.59375 C 124.847656 11.300781 124.640625 11.113281 124.4375 11.113281 L 89.453125 11.113281 C 89.246094 11.113281 89.039062 11.300781 88.925781 11.59375 L 41.320312 135.632812 C 40.910156 136.699219 40.03125 137.386719 39.074219 137.386719 L 20.90625 137.417969 C 20.699219 137.417969 20.492188 137.605469 20.382812 137.898438 L 6.613281 173.964844 C 6.445312 174.40625 6.539062 174.835938 6.683594 175.09375 Z M 222.800781 175.558594 C 222.59375 175.558594 222.390625 175.367188 222.277344 175.078125 L 164.871094 25.492188 L 159.910156 12.574219 C 159.742188 12.136719 159.835938 11.707031 159.976562 11.449219 C 160.0625 11.296875 160.210938 11.113281 160.433594 11.113281 L 206.175781 11.113281 C 206.382812 11.113281 206.585938 11.300781 206.703125 11.589844 L 254.308594 135.636719 C 254.71875 136.695312 255.601562 137.386719 256.558594 137.386719 L 274.722656 137.417969 C 274.929688 137.417969 275.132812 137.605469 275.246094 137.902344 L 289.015625 173.964844 C 289.183594 174.40625 289.089844 174.839844 288.949219 175.09375 C 288.863281 175.25 288.710938 175.433594 288.488281 175.433594 L 268.957031 175.402344 L 268.71875 175.511719 C 268.660156 175.542969 268.605469 175.558594 268.546875 175.558594 L 222.800781 175.558594 " fill-opacity="1" fill-rule="nonzero"/></g><g clip-path="url(#ae68a482ca)"><path fill="#000000" d="M 318.492188 32.519531 L 342.316406 46.316406 L 366.136719 60.113281 L 368.320312 61.371094 L 368.320312 66.34375 L 366.136719 67.597656 L 340.15625 82.652344 L 316.335938 68.855469 L 296.882812 80.136719 L 296.882812 102.730469 L 316.335938 114.015625 L 340.15625 100.21875 L 348.816406 105.246094 C 355.316406 109.015625 361.820312 112.785156 368.320312 116.554688 L 368.320312 121.527344 L 366.136719 122.785156 L 342.316406 136.582031 L 318.492188 150.375 L 316.335938 151.632812 L 314.175781 150.375 L 307.675781 146.605469 L 319.585938 139.707031 C 331.496094 132.8125 343.40625 125.914062 355.292969 119.015625 L 340.128906 110.246094 L 301.171875 132.863281 L 297.921875 134.734375 L 292.511719 137.863281 L 290.355469 136.605469 L 266.535156 122.835938 L 264.347656 121.554688 L 264.347656 61.394531 L 266.535156 60.140625 L 290.355469 46.34375 L 292.511719 45.085938 L 294.671875 46.34375 L 340.128906 72.679688 L 355.292969 63.910156 L 337.972656 53.882812 L 325.101562 46.371094 L 316.335938 41.289062 L 307.675781 36.261719 L 314.175781 32.519531 L 316.335938 31.261719 Z M 307.675781 119.066406 L 288.171875 107.757812 L 288.171875 75.191406 L 307.675781 63.882812 L 292.511719 55.113281 L 273.0625 66.394531 L 273.0625 116.554688 L 292.511719 127.835938 Z M 307.675781 119.066406 " fill-opacity="1" fill-rule="evenodd"/></g></svg>