<svg xmlns="http://www.w3.org/2000/svg" xmlns:xlink="http://www.w3.org/1999/xlink" width="500" zoomAndPan="magnify" viewBox="0 0 375 374.999991" height="500" preserveAspectRatio="xMidYMid meet" version="1.0"><defs><clipPath id="e49b4ad75d"><path d="M 1 211 L 156 211 L 156 286.226562 L 1 286.226562 Z M 1 211 " clip-rule="nonzero"/></clipPath></defs><g clip-path="url(#e49b4ad75d)"><path fill="#00618a" d="M 1.367188 269.183594 L 13.632812 269.183594 L 13.632812 220.71875 L 32.617188 262.984375 C 34.855469 268.078125 37.925781 269.910156 43.9375 269.910156 C 49.949219 269.910156 52.898438 268.101562 55.140625 262.984375 L 74.128906 220.71875 L 74.128906 269.203125 L 86.394531 269.203125 L 86.394531 220.800781 C 86.394531 216.078125 84.503906 213.792969 80.617188 212.613281 C 71.300781 209.703125 65.046875 212.222656 62.21875 218.519531 L 43.589844 260.230469 L 25.542969 218.5 C 22.832031 212.203125 16.464844 209.683594 7.148438 212.597656 C 3.253906 213.777344 1.367188 216.0625 1.367188 220.78125 Z M 96.589844 229.722656 L 108.851562 229.722656 L 108.851562 256.4375 C 108.734375 257.886719 109.316406 261.292969 116.035156 261.398438 C 119.460938 261.453125 142.488281 261.398438 142.703125 261.398438 L 142.703125 229.589844 L 154.992188 229.589844 C 155.042969 229.589844 154.976562 272.960938 154.980469 273.144531 C 155.046875 283.839844 141.722656 286.164062 135.582031 286.34375 L 96.855469 286.34375 L 96.855469 278.085938 L 135.648438 278.082031 C 143.542969 277.246094 142.613281 273.320312 142.613281 271.996094 L 142.613281 268.777344 L 116.546875 268.777344 C 104.417969 268.667969 96.695312 263.367188 96.601562 257.269531 C 96.589844 256.726562 96.863281 229.984375 96.59375 229.722656 Z M 96.589844 229.722656 " fill-opacity="1" fill-rule="nonzero"/></g><path fill="#e48e00" d="M 164.445312 269.183594 L 199.703125 269.183594 C 203.832031 269.183594 207.84375 268.320312 211.027344 266.824219 C 216.335938 264.382812 218.929688 261.078125 218.929688 256.75 L 218.929688 247.777344 C 218.929688 244.234375 215.980469 240.929688 210.203125 238.726562 C 207.136719 237.542969 203.363281 236.917969 199.710938 236.917969 L 184.851562 236.917969 C 179.898438 236.917969 177.539062 235.421875 176.949219 232.117188 C 176.832031 231.722656 176.832031 231.386719 176.832031 231.011719 L 176.832031 225.425781 C 176.832031 225.113281 176.832031 224.796875 176.949219 224.402344 C 177.539062 221.882812 178.835938 221.175781 183.199219 220.761719 C 183.554688 220.761719 184.023438 220.683594 184.378906 220.683594 L 219.40625 220.683594 L 219.40625 212.5 L 184.96875 212.5 C 180.015625 212.5 177.421875 212.816406 175.0625 213.523438 C 167.742188 215.808594 164.558594 219.445312 164.558594 225.742188 L 164.558594 232.902344 C 164.558594 238.414062 170.808594 243.136719 181.300781 244.238281 C 182.484375 244.316406 183.660156 244.394531 184.839844 244.394531 L 197.574219 244.394531 C 198.046875 244.394531 198.519531 244.394531 198.875 244.472656 C 202.761719 244.789062 204.417969 245.496094 205.59375 246.910156 C 206.324219 247.640625 206.539062 248.332031 206.539062 249.09375 L 206.539062 256.257812 C 206.539062 257.125 205.953125 258.226562 204.773438 259.167969 C 203.710938 260.113281 201.941406 260.742188 199.582031 260.902344 C 199.109375 260.902344 198.757812 260.980469 198.285156 260.980469 L 164.441406 260.980469 L 164.441406 269.164062 Z M 295.433594 254.941406 C 295.433594 263.363281 301.683594 268.082031 314.304688 269.027344 C 315.480469 269.117188 316.660156 269.171875 317.839844 269.183594 L 349.800781 269.183594 L 349.800781 261 L 317.605469 261 C 310.410156 261 307.699219 259.1875 307.699219 254.859375 L 307.699219 212.515625 L 295.433594 212.515625 Z M 226.753906 255.367188 L 226.753906 226.1875 C 226.753906 218.773438 231.953125 214.277344 242.234375 212.859375 C 243.332031 212.703125 244.433594 212.625 245.542969 212.621094 L 268.820312 212.621094 C 269.96875 212.625 271.113281 212.703125 272.25 212.859375 C 282.53125 214.277344 287.730469 218.773438 287.730469 226.1875 L 287.730469 255.367188 C 287.730469 261.378906 285.523438 264.597656 280.433594 266.695312 L 292.511719 277.613281 L 278.273438 277.613281 L 268.5 268.78125 L 258.660156 269.40625 L 245.542969 269.40625 C 243.296875 269.40625 240.933594 269.089844 238.332031 268.378906 C 230.519531 266.25 226.753906 262.148438 226.753906 255.367188 Z M 239.992188 254.636719 C 239.992188 255.03125 240.109375 255.425781 240.226562 255.902344 C 240.953125 259.292969 244.125 261.183594 248.953125 261.183594 L 260.09375 261.183594 L 249.863281 251.9375 L 264.101562 251.9375 L 273.007812 260.003906 C 274.652344 259.125 275.734375 257.78125 276.097656 256.058594 C 276.214844 255.667969 276.214844 255.269531 276.214844 254.875 L 276.214844 226.898438 C 276.214844 226.585938 276.214844 226.171875 276.097656 225.792969 C 275.371094 222.640625 272.199219 220.828125 267.472656 220.828125 L 248.984375 220.828125 C 243.53125 220.828125 240.007812 223.191406 240.007812 226.898438 L 240.007812 254.660156 Z M 239.992188 254.636719 " fill-opacity="1" fill-rule="nonzero"/><path fill="#00618a" d="M 360.582031 198.9375 C 353.042969 198.734375 347.285156 199.433594 342.359375 201.511719 C 340.960938 202.105469 338.730469 202.121094 338.503906 203.875 C 339.269531 204.679688 339.394531 205.886719 340 206.878906 C 341.175781 208.78125 343.164062 211.335938 344.933594 212.671875 C 346.867188 214.132812 348.859375 215.699219 350.9375 216.964844 C 354.625 219.21875 358.746094 220.503906 362.296875 222.757812 C 364.390625 224.089844 366.472656 225.761719 368.515625 227.265625 C 369.523438 228.007812 370.203125 229.160156 371.511719 229.625 L 371.511719 229.410156 C 370.824219 228.53125 370.644531 227.324219 370.015625 226.40625 L 367.226562 223.617188 C 364.5 219.980469 361.042969 216.820312 357.367188 214.175781 C 354.433594 212.066406 347.871094 209.222656 346.648438 205.804688 L 346.433594 205.589844 C 348.511719 205.351562 350.945312 204.601562 352.867188 204.089844 C 356.089844 203.222656 358.972656 203.445312 362.300781 202.585938 L 366.804688 201.296875 L 366.804688 200.441406 C 365.121094 198.710938 363.921875 196.425781 362.085938 194.859375 C 357.289062 190.765625 352.046875 186.679688 346.65625 183.269531 C 343.664062 181.378906 339.964844 180.152344 336.792969 178.546875 C 335.726562 178.007812 333.851562 177.730469 333.148438 176.828125 C 331.484375 174.703125 330.578125 172.007812 329.292969 169.550781 C 326.601562 164.367188 323.957031 158.699219 321.574219 153.242188 C 319.945312 149.519531 318.882812 145.851562 316.859375 142.511719 C 307.125 126.492188 296.644531 116.820312 280.417969 107.320312 C 276.964844 105.300781 272.804688 104.5 268.410156 103.457031 L 261.335938 103.027344 C 259.898438 102.425781 258.398438 100.660156 257.046875 99.804688 C 251.671875 96.402344 237.878906 89.011719 233.898438 98.714844 C 231.382812 104.851562 237.652344 110.839844 239.898438 113.953125 C 241.472656 116.136719 243.492188 118.578125 244.613281 121.035156 C 245.355469 122.644531 245.484375 124.265625 246.117188 125.972656 C 247.671875 130.15625 249.027344 134.746094 251.046875 138.632812 C 252.0625 140.597656 253.1875 142.667969 254.476562 144.425781 C 255.265625 145.503906 256.621094 145.980469 256.832031 147.644531 C 255.507812 149.503906 255.433594 152.378906 254.6875 154.726562 C 251.335938 165.304688 252.601562 178.449219 257.472656 186.277344 C 258.96875 188.675781 262.492188 193.832031 267.335938 191.855469 C 271.570312 190.125 270.605469 184.777344 271.835938 180.050781 C 272.109375 178.980469 271.941406 178.195312 272.480469 177.476562 L 272.480469 177.691406 L 276.339844 185.417969 C 279.195312 190.019531 284.265625 194.832031 288.558594 198.082031 C 290.785156 199.765625 292.558594 202.675781 295.417969 203.660156 L 295.417969 203.445312 L 295.203125 203.445312 C 294.644531 202.574219 293.773438 202.214844 293.058594 201.515625 C 291.382812 199.871094 289.515625 197.824219 288.128906 195.9375 C 284.21875 190.628906 280.769531 184.820312 277.625 178.769531 C 276.125 175.882812 274.816406 172.695312 273.554688 169.757812 C 273.066406 168.625 273.070312 166.910156 272.054688 166.324219 C 270.667969 168.476562 268.625 170.21875 267.550781 172.761719 C 265.835938 176.828125 265.613281 181.78125 264.980469 186.925781 C 264.601562 187.058594 264.769531 186.96875 264.550781 187.140625 C 261.566406 186.417969 260.515625 183.34375 259.40625 180.703125 C 256.601562 174.023438 256.082031 163.277344 258.546875 155.59375 C 259.183594 153.609375 262.074219 147.34375 260.90625 145.507812 C 260.347656 143.675781 258.507812 142.597656 257.476562 141.214844 C 256.203125 139.484375 254.925781 137.203125 254.046875 135.207031 C 251.75 130 250.675781 124.160156 248.257812 118.894531 C 247.101562 116.382812 245.148438 113.835938 243.542969 111.617188 C 241.765625 109.144531 239.773438 107.316406 238.398438 104.339844 C 237.910156 103.273438 237.242188 101.574219 237.96875 100.476562 C 238.042969 100.152344 238.191406 99.875 238.425781 99.644531 C 238.660156 99.410156 238.9375 99.257812 239.257812 99.1875 C 240.5 98.226562 243.964844 99.503906 245.257812 100.046875 C 248.695312 101.476562 251.566406 102.835938 254.480469 104.769531 C 255.878906 105.679688 257.289062 107.492188 258.980469 107.988281 L 260.90625 107.988281 C 263.921875 108.683594 267.304688 108.207031 270.121094 109.0625 C 275.105469 110.578125 279.570312 112.9375 283.628906 115.5 C 295.984375 123.308594 306.085938 134.429688 312.996094 147.707031 C 314.109375 149.84375 314.589844 151.882812 315.566406 154.144531 C 317.542969 158.695312 320.03125 163.414062 322 167.878906 C 323.960938 172.335938 325.871094 176.832031 328.644531 180.539062 C 330.101562 182.488281 335.734375 183.535156 338.292969 184.617188 C 340.085938 185.375 343.023438 186.167969 344.722656 187.191406 C 347.96875 189.152344 351.113281 191.484375 354.15625 193.632812 C 355.675781 194.707031 360.355469 197.058594 360.585938 198.996094 Z M 360.582031 198.9375 " fill-opacity="1" fill-rule="nonzero"/><path fill="#00618a" d="M 264.769531 117.179688 C 263.199219 117.148438 262.085938 117.347656 260.910156 117.609375 L 260.910156 117.824219 L 261.125 117.824219 C 261.875 119.367188 263.199219 120.355469 264.125 121.683594 L 266.269531 126.191406 L 266.484375 125.976562 C 267.8125 125.039062 268.421875 123.542969 268.410156 121.253906 C 267.878906 120.695312 267.800781 119.992188 267.339844 119.320312 C 266.726562 118.429688 265.519531 117.925781 264.765625 117.175781 Z M 264.769531 117.179688 " fill-opacity="1" fill-rule="evenodd"/><path fill="#e48e00" d="M 355.566406 260.765625 C 355.566406 266.171875 359.832031 269.8125 364.601562 269.8125 C 369.375 269.8125 373.640625 266.171875 373.640625 260.765625 C 373.640625 255.363281 369.375 251.71875 364.601562 251.71875 C 359.832031 251.71875 355.566406 255.363281 355.566406 260.765625 Z M 371.613281 260.765625 C 371.613281 264.867188 368.484375 267.933594 364.597656 267.933594 C 360.671875 267.933594 357.582031 264.867188 357.582031 260.765625 C 357.582031 256.664062 360.667969 253.601562 364.597656 253.601562 C 368.480469 253.601562 371.613281 256.664062 371.613281 260.765625 Z M 367.035156 265.929688 L 369.058594 265.929688 L 366.09375 261.394531 C 367.683594 261.226562 368.886719 260.453125 368.886719 258.570312 C 368.886719 256.472656 367.5625 255.605469 365.007812 255.605469 L 360.984375 255.605469 L 360.984375 265.933594 L 362.71875 265.933594 L 362.71875 261.46875 L 364.332031 261.46875 L 367.03125 265.933594 Z M 362.71875 260.015625 L 362.71875 257.050781 L 364.71875 257.050781 C 365.753906 257.050781 367.007812 257.242188 367.007812 258.453125 C 367.007812 259.898438 365.875 260.019531 364.574219 260.019531 L 362.71875 260.019531 Z M 362.71875 260.015625 " fill-opacity="1" fill-rule="evenodd"/></svg>