<svg xmlns="http://www.w3.org/2000/svg" xmlns:xlink="http://www.w3.org/1999/xlink" width="500" zoomAndPan="magnify" viewBox="0 0 375 374.999991" height="500" preserveAspectRatio="xMidYMid meet" version="1.0"><defs><clipPath id="036481d3a9"><path d="M 195 65.722656 L 281 65.722656 L 281 214 L 195 214 Z M 195 65.722656 " clip-rule="nonzero"/></clipPath><clipPath id="7000b08786"><path d="M 145.210938 214 L 229.960938 214 L 229.960938 309.097656 L 145.210938 309.097656 Z M 145.210938 214 " clip-rule="nonzero"/></clipPath></defs><path fill="#388e3c" d="M 134.796875 121.09375 L 96.742188 142.203125 C 95.3125 142.988281 94.4375 144.449219 94.4375 146.027344 L 94.4375 188.269531 C 94.4375 189.847656 95.3125 191.300781 96.742188 192.09375 L 134.804688 213.21875 C 136.222656 214.003906 137.984375 214.003906 139.402344 213.21875 L 177.457031 192.09375 C 178.867188 191.300781 179.746094 189.847656 179.746094 188.269531 L 179.746094 146.027344 C 179.746094 144.449219 178.867188 142.996094 177.441406 142.203125 L 139.394531 121.09375 C 138.679688 120.699219 137.882812 120.503906 137.089844 120.503906 C 136.292969 120.503906 135.5 120.699219 134.789062 121.09375 M 330.59375 159.121094 L 324.246094 162.636719 C 324.007812 162.765625 323.867188 163.007812 323.867188 163.273438 L 323.867188 170.316406 C 323.867188 170.582031 324.015625 170.820312 324.246094 170.953125 L 330.59375 174.476562 C 330.832031 174.609375 331.121094 174.609375 331.359375 174.476562 L 337.703125 170.953125 C 337.9375 170.820312 338.082031 170.582031 338.082031 170.316406 L 338.082031 163.273438 C 338.082031 163.007812 337.9375 162.765625 337.695312 162.636719 L 331.351562 159.121094 C 331.234375 159.050781 331.105469 159.019531 330.972656 159.019531 C 330.839844 159.019531 330.707031 159.050781 330.59375 159.121094 " fill-opacity="1" fill-rule="nonzero"/><g clip-path="url(#036481d3a9)"><path fill="#37474f" d="M 278.632812 76.328125 L 260.105469 65.960938 C 259.523438 65.636719 258.808594 65.644531 258.234375 65.984375 C 257.660156 66.328125 257.304688 66.941406 257.304688 67.609375 L 257.296875 130.214844 L 240.210938 120.738281 C 239.5 120.339844 238.699219 120.144531 237.910156 120.144531 C 237.117188 120.144531 236.320312 120.339844 235.605469 120.738281 L 235.613281 120.738281 L 197.558594 141.84375 C 196.132812 142.628906 195.253906 144.09375 195.253906 145.664062 L 195.253906 187.902344 C 195.253906 189.480469 196.132812 190.9375 197.558594 191.730469 L 235.621094 212.851562 C 237.039062 213.636719 238.800781 213.636719 240.21875 212.851562 L 278.273438 191.730469 C 279.6875 190.945312 280.5625 189.480469 280.5625 187.902344 L 280.5625 79.621094 C 280.5625 78.253906 279.816406 76.996094 278.632812 76.328125 Z M 256.257812 178.128906 L 238.964844 187.730469 C 238.320312 188.089844 237.519531 188.089844 236.878906 187.730469 L 219.574219 178.128906 C 218.917969 177.773438 218.519531 177.105469 218.519531 176.390625 L 218.519531 157.183594 C 218.519531 156.46875 218.917969 155.808594 219.566406 155.441406 L 236.871094 145.847656 L 236.863281 145.847656 C 237.1875 145.671875 237.542969 145.585938 237.910156 145.585938 C 238.273438 145.585938 238.628906 145.679688 238.957031 145.847656 L 256.25 155.441406 C 256.902344 155.808594 257.296875 156.476562 257.296875 157.191406 L 257.296875 176.398438 C 257.296875 177.105469 256.902344 177.773438 256.257812 178.128906 Z M 256.257812 178.128906 " fill-opacity="1" fill-rule="nonzero"/></g><path fill="#2e7d32" d="M 134.796875 121.09375 L 94.4375 188.269531 C 94.4375 189.847656 95.3125 191.300781 96.742188 192.09375 L 134.804688 213.21875 C 136.222656 214.003906 137.984375 214.003906 139.402344 213.21875 L 179.746094 146.027344 C 179.746094 144.449219 178.867188 142.996094 177.441406 142.203125 L 139.394531 121.09375 C 138.679688 120.699219 137.882812 120.503906 137.089844 120.503906 C 136.292969 120.503906 135.5 120.699219 134.789062 121.09375 " fill-opacity="1" fill-rule="nonzero"/><path fill="#4caf50" d="M 134.796875 121.09375 L 96.742188 142.203125 C 95.3125 142.988281 94.4375 144.449219 94.4375 146.027344 L 134.796875 213.21875 C 136.214844 214.003906 137.976562 214.003906 139.394531 213.21875 L 177.449219 192.09375 C 178.867188 191.300781 179.746094 189.847656 179.746094 188.269531 L 139.394531 121.09375 C 138.679688 120.699219 137.882812 120.503906 137.089844 120.503906 C 136.292969 120.503906 135.5 120.699219 134.789062 121.09375 " fill-opacity="1" fill-rule="nonzero"/><path fill="#37474f" d="M 371.324219 141.84375 L 333.273438 120.738281 C 332.5625 120.339844 331.761719 120.144531 330.972656 120.144531 C 330.179688 120.144531 329.382812 120.339844 328.667969 120.738281 L 328.675781 120.738281 L 290.621094 141.84375 C 289.203125 142.628906 288.316406 144.125 288.316406 145.757812 L 288.316406 187.824219 C 288.316406 189.449219 289.203125 190.953125 290.621094 191.738281 L 328.683594 212.859375 C 330.109375 213.652344 331.855469 213.652344 333.28125 212.859375 L 350.832031 203.117188 C 352.4375 202.226562 352.429688 199.914062 350.816406 199.027344 L 312.628906 178.136719 C 311.988281 177.773438 311.582031 177.097656 311.582031 176.367188 L 311.582031 157.191406 C 311.582031 156.476562 311.972656 155.816406 312.59375 155.472656 L 329.925781 145.863281 L 329.917969 145.863281 C 330.242188 145.6875 330.597656 145.601562 330.964844 145.601562 C 331.328125 145.601562 331.683594 145.695312 332.011719 145.863281 L 349.34375 155.480469 C 349.964844 155.824219 350.351562 156.484375 350.351562 157.199219 L 350.351562 172.84375 C 350.351562 173.511719 350.707031 174.132812 351.289062 174.46875 C 351.871094 174.796875 352.585938 174.796875 353.167969 174.460938 L 371.765625 163.628906 C 372.914062 162.960938 373.625 161.726562 373.625 160.386719 L 373.625 145.769531 C 373.625 144.132812 372.742188 142.628906 371.324219 141.84375 Z M 84.378906 141.84375 L 46.332031 120.738281 C 45.617188 120.339844 44.820312 120.144531 44.027344 120.144531 C 43.238281 120.144531 42.4375 120.339844 41.726562 120.738281 L 41.734375 120.738281 L 3.675781 141.84375 C 2.257812 142.628906 1.375 144.125 1.375 145.757812 L 1.375 203.796875 C 1.375 204.464844 1.730469 205.085938 2.3125 205.421875 C 2.894531 205.746094 3.609375 205.746094 4.191406 205.414062 L 22.785156 194.582031 C 23.933594 193.914062 24.640625 192.675781 24.640625 191.339844 L 24.640625 157.183594 C 24.640625 156.46875 25.027344 155.808594 25.648438 155.464844 L 42.980469 145.855469 C 43.308594 145.679688 43.664062 145.59375 44.027344 145.59375 C 44.394531 145.59375 44.75 145.6875 45.074219 145.855469 L 62.40625 155.472656 C 63.027344 155.816406 63.417969 156.476562 63.417969 157.191406 L 63.417969 191.347656 C 63.417969 192.683594 64.121094 193.921875 65.277344 194.589844 L 83.875 205.421875 C 84.457031 205.753906 85.167969 205.753906 85.75 205.429688 C 86.324219 205.085938 86.683594 204.464844 86.683594 203.796875 L 86.683594 145.761719 C 86.683594 144.132812 85.796875 142.628906 84.378906 141.84375 Z M 84.378906 141.84375 " fill-opacity="1" fill-rule="nonzero"/><g clip-path="url(#7000b08786)"><path fill="#539e43" d="M 187.585938 309.082031 C 186.273438 309.082031 185.046875 308.734375 183.910156 308.125 L 172.261719 301.234375 C 170.511719 300.277344 171.386719 299.925781 171.914062 299.753906 C 174.277344 298.964844 174.714844 298.792969 177.167969 297.394531 C 177.429688 297.222656 177.78125 297.308594 178.042969 297.484375 L 186.972656 302.804688 C 187.324219 302.976562 187.761719 302.976562 188.027344 302.804688 L 222.960938 282.65625 C 223.3125 282.484375 223.488281 282.132812 223.488281 281.695312 L 223.488281 241.488281 C 223.488281 241.050781 223.3125 240.703125 222.960938 240.527344 L 188.027344 220.464844 C 187.675781 220.292969 187.238281 220.292969 186.972656 220.464844 L 152.035156 240.527344 C 151.683594 240.703125 151.511719 241.136719 151.511719 241.488281 L 151.511719 281.695312 C 151.511719 282.046875 151.683594 282.484375 152.035156 282.65625 L 161.578125 288.152344 C 166.746094 290.765625 169.984375 287.714844 169.984375 284.664062 L 169.984375 244.976562 C 169.984375 244.453125 170.425781 243.929688 171.035156 243.929688 L 175.503906 243.929688 C 176.027344 243.929688 176.554688 244.367188 176.554688 244.976562 L 176.554688 284.664062 C 176.554688 291.554688 172.789062 295.566406 166.21875 295.566406 C 164.207031 295.566406 162.628906 295.566406 158.164062 293.382812 L 148.96875 288.152344 C 146.695312 286.84375 145.292969 284.402344 145.292969 281.785156 L 145.292969 241.574219 C 145.292969 238.957031 146.695312 236.515625 148.96875 235.207031 L 183.910156 215.058594 C 186.097656 213.839844 189.078125 213.839844 191.265625 215.058594 L 226.203125 235.207031 C 228.480469 236.515625 229.878906 238.957031 229.878906 241.574219 L 229.878906 281.785156 C 229.878906 284.402344 228.480469 286.84375 226.203125 288.148438 L 191.265625 308.300781 C 190.128906 308.824219 188.8125 309.082031 187.585938 309.082031 Z M 198.359375 281.4375 C 183.035156 281.4375 179.882812 274.457031 179.882812 268.523438 C 179.882812 268 180.316406 267.476562 180.933594 267.476562 L 185.484375 267.476562 C 186.011719 267.476562 186.445312 267.828125 186.445312 268.351562 C 187.148438 272.972656 189.164062 275.242188 198.445312 275.242188 C 205.800781 275.242188 208.953125 273.582031 208.953125 269.660156 C 208.953125 267.390625 208.074219 265.734375 196.605469 264.601562 C 187.0625 263.640625 181.105469 261.546875 181.105469 253.960938 C 181.105469 246.894531 187.0625 242.707031 197.042969 242.707031 C 208.25 242.707031 213.769531 246.546875 214.46875 254.917969 C 214.46875 255.183594 214.378906 255.441406 214.207031 255.703125 C 214.03125 255.878906 213.769531 256.054688 213.503906 256.054688 L 208.953125 256.054688 C 208.515625 256.054688 208.074219 255.703125 207.988281 255.265625 C 206.9375 250.472656 204.222656 248.902344 197.042969 248.902344 C 188.988281 248.902344 188.027344 251.691406 188.027344 253.785156 C 188.027344 256.3125 189.164062 257.101562 200.019531 258.496094 C 210.792969 259.890625 215.871094 261.894531 215.871094 269.398438 C 215.78125 277.070312 209.476562 281.4375 198.359375 281.4375 Z M 198.359375 281.4375 " fill-opacity="1" fill-rule="nonzero"/></g></svg>