<svg xmlns="http://www.w3.org/2000/svg" xmlns:xlink="http://www.w3.org/1999/xlink" width="500" zoomAndPan="magnify" viewBox="0 0 375 374.999991" height="500" preserveAspectRatio="xMidYMid meet" version="1.0"><path fill="#00d8ff" d="M 308.191406 128.9375 C 304.203125 127.566406 300.179688 126.300781 296.125 125.132812 C 296.804688 122.347656 297.433594 119.597656 297.988281 116.894531 C 307.125 72.523438 301.152344 36.773438 280.757812 25.003906 C 261.203125 13.71875 229.222656 25.484375 196.925781 53.617188 C 193.742188 56.394531 190.628906 59.25 187.589844 62.1875 C 185.558594 60.234375 183.488281 58.320312 181.382812 56.445312 C 147.53125 26.367188 113.601562 13.691406 93.230469 25.496094 C 73.695312 36.8125 67.910156 70.417969 76.132812 112.472656 C 76.949219 116.636719 77.875 120.78125 78.902344 124.898438 C 74.097656 126.265625 69.464844 127.71875 65.03125 129.265625 C 25.34375 143.113281 0 164.816406 0 187.324219 C 0 210.574219 27.207031 233.890625 68.542969 248.03125 C 71.894531 249.171875 75.273438 250.230469 78.675781 251.203125 C 77.570312 255.640625 76.589844 260.105469 75.734375 264.59375 C 67.894531 305.917969 74.015625 338.730469 93.5 349.976562 C 113.625 361.589844 147.398438 349.65625 180.289062 320.882812 C 182.953125 318.542969 185.5625 316.136719 188.109375 313.667969 C 191.402344 316.84375 194.78125 319.929688 198.242188 322.917969 C 230.101562 350.355469 261.5625 361.433594 281.027344 350.15625 C 301.132812 338.507812 307.667969 303.257812 299.183594 260.375 C 298.515625 257.015625 297.765625 253.671875 296.9375 250.347656 C 299.308594 249.644531 301.636719 248.921875 303.90625 248.167969 C 346.878906 233.917969 374.835938 210.882812 374.835938 187.324219 C 374.835938 164.734375 348.675781 142.886719 308.191406 128.9375 Z M 298.871094 232.957031 C 296.820312 233.636719 294.71875 234.289062 292.574219 234.929688 C 287.832031 219.898438 281.429688 203.914062 273.59375 187.402344 C 281.070312 171.28125 287.226562 155.503906 291.835938 140.574219 C 295.671875 141.683594 299.394531 142.855469 302.980469 144.089844 C 337.667969 156.042969 358.824219 173.710938 358.824219 187.324219 C 358.824219 201.824219 335.972656 220.652344 298.871094 232.957031 Z M 283.476562 263.488281 C 287.226562 282.449219 287.761719 299.59375 285.277344 312.996094 C 283.046875 325.042969 278.558594 333.070312 273.003906 336.289062 C 261.191406 343.128906 235.929688 334.234375 208.6875 310.773438 C 205.464844 307.992188 202.324219 305.125 199.261719 302.171875 C 209.824219 290.609375 220.378906 277.171875 230.683594 262.242188 C 248.800781 260.636719 265.921875 258.003906 281.445312 254.410156 C 282.195312 257.421875 282.871094 260.445312 283.476562 263.488281 Z M 127.789062 335.105469 C 116.25 339.183594 107.058594 339.300781 101.5 336.09375 C 89.675781 329.269531 84.761719 302.921875 91.464844 267.585938 C 92.261719 263.40625 93.175781 259.253906 94.203125 255.128906 C 109.554688 258.527344 126.550781 260.972656 144.714844 262.449219 C 155.085938 277.054688 165.949219 290.476562 176.890625 302.234375 C 174.566406 304.484375 172.183594 306.679688 169.75 308.816406 C 155.207031 321.539062 140.632812 330.566406 127.789062 335.105469 Z M 73.722656 232.867188 C 55.445312 226.613281 40.351562 218.488281 30.003906 209.621094 C 20.707031 201.65625 16.015625 193.742188 16.015625 187.324219 C 16.015625 173.664062 36.363281 156.242188 70.300781 144.398438 C 74.417969 142.964844 78.730469 141.609375 83.203125 140.335938 C 87.894531 155.605469 94.046875 171.570312 101.472656 187.714844 C 93.949219 204.097656 87.710938 220.316406 82.972656 235.765625 C 79.867188 234.875 76.78125 233.910156 73.722656 232.867188 Z M 91.847656 109.394531 C 84.800781 73.363281 89.480469 46.1875 101.253906 39.363281 C 113.792969 32.097656 141.523438 42.457031 170.75 68.429688 C 172.65625 70.128906 174.53125 71.859375 176.375 73.625 C 165.484375 85.328125 154.722656 98.652344 144.441406 113.171875 C 126.8125 114.808594 109.9375 117.433594 94.421875 120.953125 C 93.46875 117.121094 92.609375 113.269531 91.847656 109.394531 Z M 253.535156 149.351562 C 249.871094 143.015625 246.070312 136.761719 242.136719 130.589844 C 254.097656 132.105469 265.554688 134.113281 276.316406 136.570312 C 273.085938 146.933594 269.058594 157.765625 264.320312 168.875 C 260.855469 162.296875 257.257812 155.785156 253.535156 149.351562 Z M 187.597656 85.078125 C 194.984375 93.085938 202.382812 102.027344 209.65625 111.726562 C 194.898438 111.03125 180.113281 111.027344 165.355469 111.71875 C 172.636719 102.109375 180.097656 93.179688 187.597656 85.078125 Z M 121.238281 149.460938 C 117.5625 155.84375 114.035156 162.3125 110.65625 168.859375 C 105.996094 157.792969 102.003906 146.910156 98.746094 136.398438 C 109.441406 134.003906 120.847656 132.046875 132.730469 130.5625 C 128.753906 136.769531 124.921875 143.070312 121.238281 149.460938 Z M 133.070312 245.226562 C 120.792969 243.855469 109.21875 242 98.527344 239.667969 C 101.835938 228.972656 105.914062 217.859375 110.675781 206.550781 C 114.066406 213.105469 117.609375 219.578125 121.300781 225.960938 C 125.101562 232.527344 129.035156 238.957031 133.070312 245.226562 Z M 188.039062 290.699219 C 180.449219 282.503906 172.878906 273.4375 165.488281 263.6875 C 172.664062 263.96875 179.980469 264.113281 187.417969 264.113281 C 195.058594 264.113281 202.609375 263.941406 210.046875 263.609375 C 202.746094 273.535156 195.375 282.617188 188.039062 290.699219 Z M 264.46875 205.976562 C 269.480469 217.40625 273.703125 228.460938 277.054688 238.976562 C 266.1875 241.457031 254.453125 243.457031 242.089844 244.941406 C 246.050781 238.65625 249.890625 232.292969 253.597656 225.851562 C 257.367188 219.308594 260.992188 212.679688 264.46875 205.976562 Z M 239.726562 217.847656 C 234.050781 227.71875 228.050781 237.402344 221.746094 246.882812 C 210.320312 247.691406 198.871094 248.09375 187.417969 248.089844 C 175.753906 248.089844 164.40625 247.726562 153.480469 247.015625 C 147.007812 237.554688 140.898438 227.855469 135.160156 217.933594 C 129.449219 208.066406 124.113281 197.980469 119.167969 187.707031 C 124.101562 177.429688 129.421875 167.34375 135.113281 157.464844 L 135.109375 157.46875 C 140.800781 147.589844 146.863281 137.929688 153.285156 128.511719 C 164.433594 127.664062 175.863281 127.226562 187.417969 127.226562 C 199.023438 127.226562 210.46875 127.671875 221.613281 128.519531 C 227.972656 137.925781 233.996094 147.550781 239.675781 157.382812 C 245.386719 167.234375 250.773438 177.273438 255.832031 187.480469 C 250.828125 197.789062 245.453125 207.917969 239.726562 217.847656 Z M 272.761719 38.886719 C 285.3125 46.132812 290.191406 75.347656 282.308594 113.660156 C 281.804688 116.105469 281.238281 118.59375 280.621094 121.117188 C 265.070312 117.527344 248.183594 114.855469 230.503906 113.195312 C 220.203125 98.515625 209.53125 85.167969 198.816406 73.617188 C 201.625 70.90625 204.5 68.269531 207.4375 65.703125 C 235.113281 41.601562 260.976562 32.085938 272.761719 38.886719 Z M 187.417969 153.824219 C 205.902344 153.824219 220.890625 168.824219 220.890625 187.324219 C 220.890625 205.824219 205.902344 220.824219 187.417969 220.824219 C 168.933594 220.824219 153.945312 205.824219 153.945312 187.324219 C 153.945312 168.824219 168.933594 153.824219 187.417969 153.824219 Z M 187.417969 153.824219 " fill-opacity="1" fill-rule="nonzero"/></svg>